<svg id="Layer_1" data-name="Layer 1" xmlns="http://www.w3.org/2000/svg" viewBox="0 0 852.68 626.05"><defs><style>.cls-1{fill:#7c56c1;}.cls-2{fill:#a68dd6;}.cls-3{fill:#d2c5ea;}.cls-4{fill:#fdfdfd;}.cls-5{font-size:12px;font-family:AdobeArabic-Regular, Adobe Arabic;}.cls-6{fill:#fff;}</style></defs><path class="cls-1" d="M109.17,26.28c42.89,1.12,83.72,36,92.72,79.19C213.94,163.35,178,217.06,119.7,228.23c-17.66,3.38-17.66,3.38-17.66-14,0-3.15,0-6.3,0-9.45,1.53-2.28,4-2.15,6.26-2.29,33.93-2,63.35-29.83,68.43-63.37,6.6-43.46-26.22-83.86-70.52-86.49-2-.12-4.07-.18-5.07-2.44-1.24-6.67-.73-13.4-.43-20.09C100.86,25.76,101.92,25.45,109.17,26.28Z"/><path class="cls-1" d="M96.92,203.86C50.75,203,8.11,165.4,1.27,119.6-7.17,63,27.08,13.87,83.1,2.13c19.08-4,19.08-4,19.08,14.8,0,2.81.06,5.63.09,8.45-2.52,2-5.65,1.77-8.55,2.2C62,32.29,40.47,49.6,30.2,79.94c-12.06,35.6,6.91,76.54,41.66,91.24a92.07,92.07,0,0,0,25.54,6.29c2.11.25,4.44.05,5.57,2.51,1.25,6.67.61,13.39.49,20.09C103.37,204.67,100.35,204.72,96.92,203.86Z"/><path class="cls-2" d="M101.94,178.93c-31-1.26-54.62-15.09-68.45-42.71-14.06-28.09-10.66-55.53,8.06-80.78,13-17.51,31-26.3,52.35-29.07,2.78-.36,5.58-.66,8.37-1,2.27.48,4.75-.57,6.9.9C102,26.72,102,26.72,102,34c0,5.74.08,11.47.12,17.2l-.5.6c-2.28,1.14-4.82,1.34-7.26,1.62C70,56.22,50.91,80.08,52.29,105.16c1.32,23.9,20.47,44.13,45.32,46.47,2,.19,4.07.05,5.24,2.18,1,8.18,1.44,16.34-.23,24.48Z"/><path class="cls-2" d="M96.92,203.86c3.83.3,5.49-1.05,5.22-5.28-.42-6.52-.17-13.1-.2-19.65l.27-.26c5.42-2.11,11.29-2.35,16.8-4.28,21.58-7.59,34.86-28.8,32.54-52.51-2.06-21-20-39.8-41.05-43.13-3-.47-6.42.73-9.06-1.78a5.33,5.33,0,0,1-.64-1.63c-.61-6.43-.24-12.86-.26-19.28a6.34,6.34,0,0,1,1.38-4.63l.24-.24C129.55,51.78,151,63.61,166.32,86c18.59,27.14,16.19,64.85-5,90.07-14.27,17-32.22,26.51-54.5,27.74a35.87,35.87,0,0,0-4.86.93C100.31,204.41,98.44,205.14,96.92,203.86Z"/><path class="cls-3" d="M102.09,77.17c20.6-.19,35.95,9.28,45.16,27.06,9.92,19.11,8,38.06-5.38,55.34-10,12.9-23.56,18.68-39.66,19.1q-.15-12.79-.31-25.59l.52-.63c6.17-1.8,12.32-3.15,17.13-8.29,11.82-12.65,7-33.85-9.57-38.94-9.31-2.86-9.52-1.78-9.22-13C100.89,87.19,99.3,82,102.09,77.17Z"/><path class="cls-3" d="M101.92,51.43l-.07,25c-1,1.93-2.93,1.93-4.69,2.33-10.91,2.46-18.43,11.14-18.72,21.57-.35,13.24,5.8,22,17.76,25.34,7.07,2,7.39,2.07,7.12,9.55-.2,5.87,1.37,11.89-1.17,17.61l-.25.26c-19,0-33.21-8.65-43.5-24.2-11.25-17-9.24-42.69,3.82-58.43C72.65,57.88,85.82,51.81,101.92,51.43Z"/><path class="cls-4" d="M102.15,152.82c0-6.3-.38-12.63,0-18.9.27-4.32-1.17-6.2-5.4-6.85-8.82-1.36-14.81-6.72-18-14.76-6.66-16.86,4-33.68,20.21-35.14a16.4,16.4,0,0,0,2.87-.75l.24.75c0,6.78.27,13.58-.17,20.33-.24,3.89,1.71,4.8,4.72,5.36,9.8,1.81,16.89,7.29,19.55,16.84C131.37,138.32,118.47,153.45,102.15,152.82Z"/><text class="cls-5" transform="translate(248.98 619.47)">Stvmp</text><path class="cls-6" d="M822.09,113.88c0-9.43,5.69-14.73,14.28-14.73s14.18,5.27,14.18,14.73-5.66,14.92-14.23,14.92S822.09,123.46,822.09,113.88Zm25.82.07c0-8.31-4.78-12.42-11.54-12.42s-11.63,4.06-11.63,12.42c0,8.54,5,12.48,11.61,12.48C843.13,126.43,847.91,122.44,847.91,114Zm-18.07-8.41h7.42c4,0,6.36,1.73,6.36,5.22a4.88,4.88,0,0,1-3.63,5,2.17,2.17,0,0,1,1.65,1.14l2.85,5.47h-5.57l-2.55-5.87h-1.83v5.87h-4.7Zm4.73,3.56v4.09h1.78c1.61,0,2.55-.5,2.55-2.16s-1.07-1.93-2.23-1.93Z"/><path class="cls-6" d="M270.18,143.53c1,20.47,15.88,29.66,34.26,29.66,16.29,0,26.73-6.48,26.73-17.55,0-10-7.93-13.78-21.72-16.5l-25.07-4.59c-20.47-3.76-34.67-15-34.67-36.77,0-24.64,19.43-40.52,50.13-40.52,34.47,0,53.89,17.76,54.31,47l-24,.83c-.84-18-12.53-27.36-30.5-27.36-15.45,0-24.23,6.89-24.23,18.17,0,9.61,6.9,12.95,18.8,15.25l24.23,4.39c25.9,4.8,38,17.13,38,38.43,0,25.9-22.35,39.9-52,39.9-33.84,0-58.28-17.55-58.28-49.3Z"/><path class="cls-6" d="M377.13,116.79H364V102l6.26-1c9-1.47,8.86.77,9.3,2l.33-22.38L402,73.76V99.24h16.85l6.91,17.55H402v37.72c-.07,3.53.16-1.32,0,0h0s-26.76.64-24.85.74Z"/><path class="cls-6" d="M483.76,163.79l25-64.55h24.44l-36.35,92.12H469.24L432.9,99.24h26.32"/><path class="cls-6" d="M659.11,96.74c24.86,0,32.8,17.13,32.8,37.18v57.44H666.84V138.93c0-14.2-4.39-22.35-16.71-22.35-12.11,0-19.43,10-19.43,25.48v49.3H605.64V138.93c0-14.2-4.6-22.35-16.71-22.35s-19.43,10-19.43,25.48v49.3H544.44V99.24H569.5v15c4.6-10.44,15-17.54,29-17.54,16.29,0,25.48,7.73,29.45,19C633,104.88,644.07,96.74,659.11,96.74Z"/><path class="cls-6" d="M737,225.62H712V99.24H737V117c4.18-11.28,15.25-20.26,31.75-20.26,27.16,0,41.57,21.51,41.57,48.67s-14.41,48.46-41.57,48.46c-16.5,0-27.57-9-31.75-20.06Zm-.2-78.54c0,16.92,10,27.15,24.23,27.15,15.87,0,24-11.49,24-28.82,0-17.55-8.15-29-24-29-14.21,0-24.23,10.45-24.23,27.16Z"/><path class="cls-6" d="M416.53,191.36H388.21A36.4,36.4,0,0,1,379.76,180q-3.21-6.65-3.22-20l.48-12.89,25,1.12c0,9.56,1.65,25.51,4.43,30.23a42.23,42.23,0,0,0,10.12,11.81Z"/></svg>